<?xml version="1.0" encoding="UTF-8" standalone="no"?>
<!-- Created with matplotlib (https://matplotlib.org/) -->

<svg
   xmlns:dc="http://purl.org/dc/elements/1.1/"
   xmlns:cc="http://creativecommons.org/ns#"
   xmlns:rdf="http://www.w3.org/1999/02/22-rdf-syntax-ns#"
   xmlns:svg="http://www.w3.org/2000/svg"
   xmlns="http://www.w3.org/2000/svg"
   xmlns:xlink="http://www.w3.org/1999/xlink"
   xmlns:sodipodi="http://sodipodi.sourceforge.net/DTD/sodipodi-0.dtd"
   xmlns:inkscape="http://www.inkscape.org/namespaces/inkscape"
   height="511.19266pt"
   version="1.1"
   viewBox="0 0 477.15484 340.7951"
   width="715.7323pt"
   id="svg5201"
   sodipodi:docname="Data Profession Competencies.svg"
   inkscape:version="0.92.4 (unknown)"
   inkscape:export-filename="/media/sf_aviram/Downloads/data-profession.png"
   inkscape:export-xdpi="198.7"
   inkscape:export-ydpi="198.7">
  <title
     id="title8393">Data Disciplines × Professions </title>
  <metadata
     id="metadata5205">
    <rdf:RDF>
      <cc:Work
         rdf:about="">
        <dc:format>image/svg+xml</dc:format>
        <dc:type
           rdf:resource="http://purl.org/dc/dcmitype/StillImage" />
        <dc:title>Data Disciplines × Professions </dc:title>
        <dc:date>2019-07-06</dc:date>
        <dc:creator>
          <cc:Agent>
            <dc:title>Avi Alkalay</dc:title>
          </cc:Agent>
        </dc:creator>
        <dc:publisher>
          <cc:Agent>
            <dc:title>Avi Alkalay</dc:title>
          </cc:Agent>
        </dc:publisher>
        <dc:source>iFood</dc:source>
        <cc:license
           rdf:resource="http://creativecommons.org/licenses/by-nc-sa/4.0/" />
      </cc:Work>
      <cc:License
         rdf:about="http://creativecommons.org/licenses/by-nc-sa/4.0/">
        <cc:permits
           rdf:resource="http://creativecommons.org/ns#Reproduction" />
        <cc:permits
           rdf:resource="http://creativecommons.org/ns#Distribution" />
        <cc:requires
           rdf:resource="http://creativecommons.org/ns#Notice" />
        <cc:requires
           rdf:resource="http://creativecommons.org/ns#Attribution" />
        <cc:prohibits
           rdf:resource="http://creativecommons.org/ns#CommercialUse" />
        <cc:permits
           rdf:resource="http://creativecommons.org/ns#DerivativeWorks" />
        <cc:requires
           rdf:resource="http://creativecommons.org/ns#ShareAlike" />
      </cc:License>
    </rdf:RDF>
  </metadata>
  <sodipodi:namedview
     pagecolor="#ffffff"
     bordercolor="#666666"
     borderopacity="1"
     objecttolerance="10000"
     gridtolerance="10000"
     guidetolerance="10000"
     inkscape:pageopacity="1"
     inkscape:pageshadow="2"
     inkscape:window-width="1280"
     inkscape:window-height="755"
     id="namedview5203"
     showgrid="false"
     inkscape:zoom="0.59521299"
     inkscape:cx="489.08861"
     inkscape:cy="378.04262"
     inkscape:window-x="0"
     inkscape:window-y="1"
     inkscape:window-maximized="1"
     inkscape:current-layer="svg5201"
     scale-x="0.5"
     fit-margin-top="10"
     fit-margin-left="10"
     fit-margin-right="10"
     fit-margin-bottom="10"
     inkscape:snap-path-clip="false"
     inkscape:snap-path-mask="true"
     inkscape:snap-tangential="true"
     inkscape:snap-perpendicular="true" />
  <defs
     id="defs4481"
     style="stroke-linecap:butt;stroke-linejoin:round">
    <style
       type="text/css"
       id="style4479">
*{stroke-linecap:butt;stroke-linejoin:round;}
  </style>
    <defs
       id="defs4770">
      <path
         style="stroke-linecap:butt;stroke-linejoin:round"
         inkscape:connector-curvature="0"
         id="DejaVuSans-67"
         d="M 64.40625,67.28125 V 56.890625 q -4.984375,4.640625 -10.625,6.921875 -5.640625,2.296875 -11.984375,2.296875 -12.5,0 -19.140625,-7.640625 -6.640625,-7.640625 -6.640625,-22.09375 0,-14.40625 6.640625,-22.046875 Q 29.296875,6.6875 41.796875,6.6875 q 6.34375,0 11.984375,2.296875 5.640625,2.296875 10.625,6.9375 V 5.609375 Q 59.234375,2.09375 53.4375,0.328125 q -5.78125,-1.75 -12.21875,-1.75 -16.5625,0 -26.09375,10.125 Q 5.609375,18.84375 5.609375,36.375 q 0,17.578125 9.515625,27.703125 9.53125,10.140625 26.09375,10.140625 6.53125,0 12.3125,-1.734375 5.796875,-1.734375 10.875,-5.203125 z" />
      <path
         style="stroke-linecap:butt;stroke-linejoin:round"
         inkscape:connector-curvature="0"
         id="DejaVuSans-38"
         d="M 24.3125,39.203125 Q 19.875,35.25 17.796875,31.3125 15.71875,27.390625 15.71875,23.09375 q 0,-7.125 5.171875,-11.859375 5.1875,-4.734375 13,-4.734375 4.640625,0 8.6875,1.53125 4.046875,1.546875 7.625,4.671875 z m 6.890625,5.46875 L 56,19.28125 q 2.890625,4.359375 4.5,9.3125 1.609375,4.953125 1.90625,10.515625 h 9.078125 q -0.578125,-6.4375 -3.125,-12.75 -2.53125,-6.296875 -7.078125,-12.4375 L 74.90625,0 H 62.59375 L 55.609375,7.171875 Q 50.53125,2.828125 44.96875,0.703125 q -5.5625,-2.125 -11.953125,-2.125 -11.78125,0 -19.25,6.71875 -7.46875,6.71875 -7.46875,17.21875 0,6.25 3.265625,11.734375 3.28125,5.5 9.828125,10.328125 -2.34375,3.078125 -3.578125,6.125 -1.21875,3.0625 -1.21875,5.984375 0,7.90625 5.421875,12.71875 5.421875,4.8125 14.40625,4.8125 4.0625,0 8.078125,-0.875 4.03125,-0.875 8.1875,-2.640625 V 61.8125 q -4.25,2.296875 -8.109375,3.484375 Q 38.71875,66.5 35.40625,66.5 q -5.125,0 -8.328125,-2.71875 -3.203125,-2.703125 -3.203125,-7 0,-2.484375 1.4375,-5 1.453125,-2.515625 5.890625,-7.109375 z" />
      <path
         style="stroke-linecap:butt;stroke-linejoin:round"
         inkscape:connector-curvature="0"
         id="DejaVuSans-86"
         d="M 28.609375,0 0.78125,72.90625 h 10.296875 l 23.109375,-61.375 23.140625,61.375 h 10.25 L 39.796875,0 Z" />
      <path
         style="stroke-linecap:butt;stroke-linejoin:round"
         inkscape:connector-curvature="0"
         id="DejaVuSans-122"
         d="M 5.515625,54.6875 H 48.1875 V 46.484375 L 14.40625,7.171875 H 48.1875 V 0 H 4.296875 v 8.203125 l 33.796875,39.3125 H 5.515625 Z" />
    </defs>
  </defs>
  <g
     style="stroke-linecap:butt;stroke-linejoin:round"
     id="patch_1"
     transform="translate(6.6666664,6.6666664)">
    <path
       inkscape:connector-curvature="0"
       id="path4483"
       style="fill:none;stroke-linecap:butt;stroke-linejoin:round"
       d="M 0,280.96944 H 463.8215 V 0 H 0 Z" />
  </g>
  <g
     id="line2d_19"
     style="stroke-linecap:butt;stroke-linejoin:round"
     transform="translate(6.6666664,6.6666664)" />
  <g
     id="line2d_20"
     style="stroke-linecap:butt;stroke-linejoin:round"
     transform="translate(6.6666664,6.6666664)" />
  <defs
     id="defs5199">
    <clipPath
       id="p20c4b48c1d"
       style="stroke-linecap:butt;stroke-linejoin:round">
      <path
         d="m 406.81631,134.75906 c 0,-14.27698 -2.81225,-28.41513 -8.27581,-41.60534 -5.46357,-13.190209 -13.47219,-25.175958 -23.56754,-35.271307 -10.09535,-10.095349 -22.0811,-18.10397 -35.2713,-23.567533 -13.19021,-5.463564 -27.32837,-8.275817 -41.60535,-8.275817 -14.27698,0 -28.41513,2.812253 -41.60534,8.275817 -13.19021,5.463563 -25.17596,13.472184 -35.27131,23.567533 -10.09535,10.095349 -18.10397,22.081098 -23.56753,35.271307 -5.46356,13.19021 -8.27582,27.32836 -8.27582,41.60534 0,14.27698 2.81226,28.41514 8.27582,41.60534 5.46356,13.19021 13.47218,25.17596 23.56753,35.27131 10.09535,10.09535 22.0811,18.10397 35.27131,23.56753 13.19021,5.46357 27.32836,8.27582 41.60534,8.27582 14.27698,0 28.41514,-2.81225 41.60535,-8.27582 13.1902,-5.46356 25.17595,-13.47218 35.2713,-23.56753 10.09535,-10.09535 18.10397,-22.0811 23.56754,-35.27131 5.46356,-13.1902 8.27581,-27.32836 8.27581,-41.60534 m -108.72,0 c 0,0 0,0 0,0 0,0 0,0 0,0 0,0 0,0 0,0 0,0 0,0 0,0 0,0 0,0 0,0 0,0 0,0 0,0 0,0 0,0 0,0 0,0 0,0 0,0 0,0 0,0 0,0 0,0 0,0 0,0 0,0 0,0 0,0 0,0 0,0 0,0 0,0 0,0 0,0 0,0 0,0 0,0 0,0 0,0 0,0 0,0 0,0 0,0 m 108.72,0 z"
         id="path5196"
         inkscape:connector-curvature="0"
         style="stroke-linecap:butt;stroke-linejoin:round" />
    </clipPath>
  </defs>
  <g
     id="g8333"
     transform="translate(-119.97485,13.285661)"
     style="stroke-linecap:butt;stroke-linejoin:round">
    <g
       id="g8206"
       style="stroke-linecap:butt;stroke-linejoin:round">
      <g
         id="g7782"
         style="stroke-linecap:butt;stroke-linejoin:round">
        <g
           id="g7683"
           style="stroke-linecap:butt;stroke-linejoin:round">
          <g
             style="stroke-linecap:butt;stroke-linejoin:round"
             id="ytick_2">
            <g
               style="stroke-linecap:butt;stroke-linejoin:round"
               id="line2d_9">
              <path
                 inkscape:connector-curvature="0"
                 id="path4847"
                 style="fill:none;stroke:#b0b0b0;stroke-width:0.80000001;stroke-linecap:square;stroke-linejoin:round"
                 d="m 298.09631,123.88706 1.51309,0.10581 1.48364,0.31535 1.42531,0.51878 1.33924,0.71208 1.22711,0.89155 1.09108,1.05364 0.93383,1.19525 0.75839,1.31357 0.5682,1.40634 0.36694,1.47173 0.15855,1.50847 -0.0529,1.51587 -0.26338,1.49374 -0.46872,1.44254 -0.66491,1.36328 -0.84818,1.25747 -1.01492,1.12719 -1.16193,0.97497 -1.2863,0.80378 -1.38566,0.61693 -1.45802,0.41808 -1.50202,0.2111 h -1.51679 l -1.50202,-0.2111 -1.45803,-0.41808 -1.38565,-0.61693 -1.28631,-0.80378 -1.16192,-0.97497 -1.01493,-1.12719 -0.84818,-1.25747 -0.66491,-1.36328 -0.46871,-1.44254 -0.26339,-1.49374 -0.0529,-1.51587 0.15855,-1.50847 0.36695,-1.47173 0.56819,-1.40634 0.7584,-1.31357 0.93382,-1.19525 1.09109,-1.05364 1.2271,-0.89155 1.33924,-0.71208 1.42531,-0.51878 1.48364,-0.31535 1.51309,-0.10581 v 0"
                 clip-path="url(#p20c4b48c1d)" />
            </g>
            <g
               style="stroke-linecap:butt;stroke-linejoin:round"
               id="text_9">
              <!-- 1 -->
              <defs
                 id="defs4851">
                <path
                   style="stroke-linecap:butt;stroke-linejoin:round"
                   inkscape:connector-curvature="0"
                   id="DejaVuSans-49"
                   d="m 12.40625,8.296875 h 16.109375 v 55.625 L 10.984375,60.40625 v 8.984375 l 17.4375,3.515625 H 38.28125 V 8.296875 H 54.390625 V 0 H 12.40625 Z" />
              </defs>
              <g
                 id="g4855"
                 transform="matrix(0.07,0,0,-0.07,298.09631,122.43128)"
                 style="fill:#808080;stroke-linecap:butt;stroke-linejoin:round">
                <use
                   height="100%"
                   width="100%"
                   y="0"
                   x="0"
                   style="stroke-linecap:butt;stroke-linejoin:round"
                   id="use4853"
                   xlink:href="#DejaVuSans-49" />
              </g>
            </g>
          </g>
          <g
             style="stroke-linecap:butt;stroke-linejoin:round"
             id="ytick_3">
            <g
               style="stroke-linecap:butt;stroke-linejoin:round"
               id="line2d_10">
              <path
                 inkscape:connector-curvature="0"
                 id="path4859"
                 style="fill:none;stroke:#b0b0b0;stroke-width:0.80000001;stroke-linecap:square;stroke-linejoin:round"
                 d="m 298.09631,113.01506 2.27287,0.11912 2.24796,0.35604 2.19844,0.58907 2.12481,0.81564 2.02792,1.03328 1.9088,1.23959 1.76878,1.43232 1.60936,1.60937 1.43233,1.76877 1.23959,1.9088 1.03327,2.02792 0.81565,2.12482 0.58906,2.19843 0.35605,2.24797 0.11911,2.27286 -0.11911,2.27287 -0.35605,2.24796 -0.58906,2.19844 -0.81565,2.12481 -1.03327,2.02792 -1.23959,1.9088 -1.43233,1.76878 -1.60936,1.60936 -1.76878,1.43233 -1.9088,1.23959 -2.02792,1.03327 -2.12481,0.81564 -2.19844,0.58907 -2.24796,0.35605 -2.27287,0.11911 -2.27286,-0.11911 -2.24797,-0.35605 -2.19843,-0.58907 -2.12482,-0.81564 -2.02792,-1.03327 -1.9088,-1.23959 -1.76877,-1.43233 -1.60937,-1.60936 -1.43232,-1.76878 -1.23959,-1.9088 -1.03328,-2.02792 -0.81564,-2.12481 -0.58907,-2.19844 -0.35604,-2.24796 -0.11912,-2.27287 0.11912,-2.27286 0.35604,-2.24797 0.58907,-2.19843 0.81564,-2.12482 1.03328,-2.02792 1.23959,-1.9088 1.43232,-1.76877 1.60937,-1.60937 1.76877,-1.43232 1.9088,-1.23959 2.02792,-1.03328 2.12482,-0.81564 2.19843,-0.58907 2.24797,-0.35604 2.27286,-0.11912 v 0"
                 clip-path="url(#p20c4b48c1d)" />
            </g>
            <g
               style="stroke-linecap:butt;stroke-linejoin:round"
               id="text_10">
              <!-- 2 -->
              <defs
                 id="defs4863">
                <path
                   style="stroke-linecap:butt;stroke-linejoin:round"
                   inkscape:connector-curvature="0"
                   id="DejaVuSans-50"
                   d="M 19.1875,8.296875 H 53.609375 V 0 H 7.328125 v 8.296875 q 5.609375,5.8125 15.296875,15.59375 9.703125,9.796875 12.1875,12.640625 4.734375,5.3125 6.609375,9 1.890625,3.6875 1.890625,7.25 0,5.8125 -4.078125,9.46875 -4.078125,3.671875 -10.625,3.671875 -4.640625,0 -9.796875,-1.609375 -5.140625,-1.609375 -11,-4.890625 v 9.96875 Q 13.765625,71.78125 18.9375,73 q 5.1875,1.21875 9.484375,1.21875 11.328125,0 18.0625,-5.671875 6.734375,-5.65625 6.734375,-15.125 0,-4.5 -1.6875,-8.53125 Q 49.859375,40.875 45.40625,35.40625 44.1875,33.984375 37.640625,27.21875 31.109375,20.453125 19.1875,8.296875 Z" />
              </defs>
              <g
                 id="g4867"
                 transform="matrix(0.07,0,0,-0.07,298.09631,111.55928)"
                 style="fill:#808080;stroke-linecap:butt;stroke-linejoin:round">
                <use
                   height="100%"
                   width="100%"
                   y="0"
                   x="0"
                   style="stroke-linecap:butt;stroke-linejoin:round"
                   id="use4865"
                   xlink:href="#DejaVuSans-50" />
              </g>
            </g>
          </g>
          <g
             style="stroke-linecap:butt;stroke-linejoin:round"
             id="ytick_4">
            <g
               style="stroke-linecap:butt;stroke-linejoin:round"
               id="line2d_11">
              <path
                 inkscape:connector-curvature="0"
                 id="path4871"
                 style="fill:none;stroke:#b0b0b0;stroke-width:0.80000001;stroke-linecap:square;stroke-linejoin:round"
                 d="m 298.09631,102.14306 2.27518,0.0794 2.26409,0.23797 2.24198,0.39532 2.20894,0.55075 2.16514,0.7035 2.11079,0.85281 2.04617,0.99798 1.97156,1.13829 1.88736,1.27303 1.79395,1.4016 1.69182,1.52332 1.58143,1.63762 1.46335,1.74395 1.33813,1.84178 1.2064,1.93063 1.06878,2.01009 0.92596,2.07974 0.77863,2.13927 0.62751,2.18838 0.47332,2.22681 0.31684,2.25441 0.1588,2.27102 v 2.27656 l -0.1588,2.27102 -0.31684,2.25441 -0.47332,2.22682 -0.62751,2.18837 -0.77863,2.13927 -0.92596,2.07975 -1.06878,2.01008 -1.2064,1.93064 -1.33813,1.84178 -1.46335,1.74395 -1.58143,1.63762 -1.69182,1.52332 -1.79395,1.40159 -1.88736,1.27304 -1.97156,1.13828 -2.04617,0.99798 -2.11079,0.85282 -2.16514,0.70349 -2.20894,0.55075 -2.24198,0.39533 -2.26409,0.23796 -2.27518,0.0794 -2.27517,-0.0794 -2.2641,-0.23796 -2.24198,-0.39533 -2.20893,-0.55075 -2.16515,-0.70349 -2.11079,-0.85282 -2.04616,-0.99798 -1.97156,-1.13828 -1.88736,-1.27304 -1.79396,-1.40159 -1.69181,-1.52332 -1.58144,-1.63762 -1.46335,-1.74395 -1.33813,-1.84178 -1.20639,-1.93064 -1.06878,-2.01008 -0.92597,-2.07975 -0.77863,-2.13927 -0.6275,-2.18837 -0.47333,-2.22682 -0.31683,-2.25441 -0.15881,-2.27102 v -2.27656 l 0.15881,-2.27102 0.31683,-2.25441 0.47333,-2.22681 0.6275,-2.18838 0.77863,-2.13927 0.92597,-2.07974 1.06878,-2.01009 1.20639,-1.93063 1.33813,-1.84178 1.46335,-1.74395 1.58144,-1.63762 1.69181,-1.52332 1.79396,-1.4016 1.88736,-1.27303 1.97156,-1.13829 2.04616,-0.99798 2.11079,-0.85281 2.16515,-0.7035 2.20893,-0.55075 2.24198,-0.39532 2.2641,-0.23797 2.27517,-0.0794 v 0"
                 clip-path="url(#p20c4b48c1d)" />
            </g>
            <g
               style="stroke-linecap:butt;stroke-linejoin:round"
               id="text_11">
              <!-- 3 -->
              <defs
                 id="defs4875">
                <path
                   style="stroke-linecap:butt;stroke-linejoin:round"
                   inkscape:connector-curvature="0"
                   id="DejaVuSans-51"
                   d="M 40.578125,39.3125 Q 47.65625,37.796875 51.625,33 q 3.984375,-4.78125 3.984375,-11.8125 0,-10.78125 -7.421875,-16.703125 -7.421875,-5.90625 -21.09375,-5.90625 -4.578125,0 -9.4375,0.90625 -4.859375,0.90625 -10.03125,2.71875 v 9.515625 q 4.09375,-2.390625 8.96875,-3.609375 4.890625,-1.21875 10.21875,-1.21875 9.265625,0 14.125,3.65625 4.859375,3.65625 4.859375,10.640625 0,6.453125 -4.515625,10.078125 -4.515625,3.640625 -12.5625,3.640625 h -8.5 v 8.109375 h 8.890625 q 7.265625,0 11.125,2.90625 3.859375,2.90625 3.859375,8.375 0,5.609375 -3.984375,8.609375 -3.96875,3.015625 -11.390625,3.015625 -4.0625,0 -8.703125,-0.890625 Q 15.375,64.15625 9.8125,62.3125 v 8.78125 q 5.625,1.5625 10.53125,2.34375 4.90625,0.78125 9.25,0.78125 11.234375,0 17.765625,-5.109375 6.546875,-5.09375 6.546875,-13.78125 0,-6.0625 -3.46875,-10.234375 -3.46875,-4.171875 -9.859375,-5.78125 z" />
              </defs>
              <g
                 id="g4879"
                 transform="matrix(0.07,0,0,-0.07,298.09631,100.68728)"
                 style="fill:#808080;stroke-linecap:butt;stroke-linejoin:round">
                <use
                   height="100%"
                   width="100%"
                   y="0"
                   x="0"
                   style="stroke-linecap:butt;stroke-linejoin:round"
                   id="use4877"
                   xlink:href="#DejaVuSans-51" />
              </g>
            </g>
          </g>
          <g
             style="stroke-linecap:butt;stroke-linejoin:round"
             id="ytick_5">
            <g
               style="stroke-linecap:butt;stroke-linejoin:round"
               id="line2d_12">
              <path
                 inkscape:connector-curvature="0"
                 id="path4883"
                 style="fill:none;stroke:#b0b0b0;stroke-width:0.80000001;stroke-linecap:square;stroke-linejoin:round"
                 d="m 298.09631,91.271063 3.03357,0.105934 3.01879,0.317288 2.98931,0.527095 2.94525,0.734334 2.88685,0.937996 2.8144,1.137088 2.72821,1.33064 2.62875,1.517709 2.51648,1.697384 2.39194,1.868789 2.25576,2.03109 2.10857,2.1835 1.95113,2.32527 1.78418,2.4557 1.60852,2.57418 1.42505,2.68012 1.23461,2.77299 1.03818,2.85236 0.83667,2.91783 0.6311,2.96909 0.42245,3.00588 0.21174,3.02802 v 3.03542 l -0.21174,3.02803 -0.42245,3.00587 -0.6311,2.96909 -0.83667,2.91783 -1.03818,2.85236 -1.23461,2.773 -1.42505,2.68011 -1.60852,2.57418 -1.78418,2.45571 -1.95113,2.32526 -2.10857,2.1835 -2.25576,2.03109 -2.39194,1.86879 -2.51648,1.69739 -2.62875,1.51771 -2.72821,1.33064 -2.8144,1.13708 -2.88685,0.938 -2.94525,0.73433 -2.98931,0.5271 -3.01879,0.31729 -3.03357,0.10593 -3.03357,-0.10593 -3.01879,-0.31729 -2.9893,-0.5271 -2.94526,-0.73433 -2.88685,-0.938 -2.81439,-1.13708 -2.72822,-1.33064 -2.62875,-1.51771 -2.51647,-1.69739 -2.39195,-1.86879 -2.25575,-2.03109 -2.10858,-2.1835 -1.95113,-2.32526 -1.78417,-2.45571 -1.60853,-2.57418 -1.42504,-2.68011 -1.23462,-2.773 -1.03817,-2.85236 -0.83668,-2.91783 -0.6311,-2.96909 -0.42245,-3.00587 -0.21174,-3.02803 v -3.03542 l 0.21174,-3.02802 0.42245,-3.00588 0.6311,-2.96909 0.83668,-2.91783 1.03817,-2.85236 1.23462,-2.77299 1.42504,-2.68012 1.60853,-2.57418 1.78417,-2.4557 1.95113,-2.32527 2.10858,-2.1835 2.25575,-2.03109 2.39195,-1.868789 2.51647,-1.697384 2.62875,-1.517709 2.72822,-1.33064 2.81439,-1.137088 2.88685,-0.937996 2.94526,-0.734334 2.9893,-0.527095 3.01879,-0.317288 3.03357,-0.105934 v 0"
                 clip-path="url(#p20c4b48c1d)" />
            </g>
            <g
               style="stroke-linecap:butt;stroke-linejoin:round"
               id="text_12">
              <!-- 4 -->
              <defs
                 id="defs4887">
                <path
                   style="stroke-linecap:butt;stroke-linejoin:round"
                   inkscape:connector-curvature="0"
                   id="DejaVuSans-52"
                   d="M 37.796875,64.3125 12.890625,25.390625 h 24.90625 z m -2.59375,8.59375 h 12.40625 V 25.390625 h 10.40625 V 17.1875 H 47.609375 V 0 h -9.8125 V 17.1875 H 4.890625 v 9.515625 z" />
              </defs>
              <g
                 id="g4891"
                 transform="matrix(0.07,0,0,-0.07,298.09631,89.815281)"
                 style="fill:#808080;stroke-linecap:butt;stroke-linejoin:round">
                <use
                   height="100%"
                   width="100%"
                   y="0"
                   x="0"
                   style="stroke-linecap:butt;stroke-linejoin:round"
                   id="use4889"
                   xlink:href="#DejaVuSans-52" />
              </g>
            </g>
          </g>
          <g
             style="stroke-linecap:butt;stroke-linejoin:round"
             id="ytick_6">
            <g
               style="stroke-linecap:butt;stroke-linejoin:round"
               id="line2d_13">
              <path
                 inkscape:connector-curvature="0"
                 id="path4895"
                 style="fill:none;stroke:#000000;stroke-width:0.80024999;stroke-linecap:square;stroke-linejoin:round;stroke-miterlimit:4;stroke-dasharray:none;stroke-opacity:1"
                 d="m 298.09631,80.399063 3.79196,0.132418 3.77349,0.396609 3.73663,0.658869 3.68157,0.917918 3.60857,1.172495 3.51799,1.421359 3.41027,1.6633 3.28593,1.897137 3.1456,2.121731 2.98993,2.335988 2.81969,2.538864 2.63573,2.729372 2.43891,2.906577 2.23022,3.06964 2.01065,3.21772 1.78131,3.35015 1.54327,3.46624 1.29771,3.56545 1.04585,3.64729 0.78887,3.71136 0.52806,3.75734 0.26468,3.78504 v 3.79427 l -0.26468,3.78503 -0.52806,3.75735 -0.78887,3.71136 -1.04585,3.64729 -1.29771,3.56545 -1.54327,3.46624 -1.78131,3.35014 -2.01065,3.21773 -2.23022,3.06963 -2.43891,2.90658 -2.63573,2.72937 -2.81969,2.53887 -2.98993,2.33599 -3.1456,2.12173 -3.28593,1.89713 -3.41027,1.6633 -3.51799,1.42136 -3.60857,1.1725 -3.68157,0.91792 -3.73663,0.65886 -3.77349,0.39661 -3.79196,0.13242 -3.79196,-0.13242 -3.77349,-0.39661 -3.73663,-0.65886 -3.68156,-0.91792 -3.60857,-1.1725 -3.51799,-1.42136 -3.41027,-1.6633 -3.28594,-1.89713 -3.14559,-2.12173 -2.98993,-2.33599 -2.8197,-2.53887 -2.63572,-2.72937 -2.43891,-2.90658 -2.23022,-3.06963 -2.01066,-3.21773 -1.7813,-3.35014 -1.54327,-3.46624 -1.29772,-3.56545 -1.04584,-3.64729 -0.78888,-3.71136 -0.52806,-3.75735 -0.26467,-3.78503 v -3.79427 l 0.26467,-3.78504 0.52806,-3.75734 0.78888,-3.71136 1.04584,-3.64729 1.29772,-3.56545 1.54327,-3.46624 1.7813,-3.35015 2.01066,-3.21772 2.23022,-3.06964 2.43891,-2.906577 2.63572,-2.729372 2.8197,-2.538864 2.98993,-2.335988 3.14559,-2.121731 3.28594,-1.897137 3.41027,-1.6633 3.51799,-1.421359 3.60857,-1.172495 3.68156,-0.917918 3.73663,-0.658869 3.77349,-0.396609 3.79196,-0.132418 v 0"
                 clip-path="url(#p20c4b48c1d)" />
            </g>
            <g
               style="stroke-linecap:butt;stroke-linejoin:round"
               id="text_13">
              <!-- 5 -->
              <defs
                 id="defs4899">
                <path
                   style="stroke-linecap:butt;stroke-linejoin:round"
                   inkscape:connector-curvature="0"
                   id="DejaVuSans-53"
                   d="m 10.796875,72.90625 h 38.71875 v -8.3125 h -29.6875 V 46.734375 q 2.140625,0.734375 4.28125,1.09375 2.15625,0.359375 4.3125,0.359375 Q 40.625,48.1875 47.75,41.5 54.890625,34.8125 54.890625,23.390625 54.890625,11.625 47.5625,5.09375 40.234375,-1.421875 26.90625,-1.421875 q -4.59375,0 -9.359375,0.78125 -4.75,0.78125 -9.828125,2.34375 V 11.625 q 4.390625,-2.390625 9.078125,-3.5625 4.6875,-1.171875 9.90625,-1.171875 8.453125,0 13.375,4.4375 4.9375,4.4375 4.9375,12.0625 0,7.609375 -4.9375,12.046875 -4.921875,4.453125 -13.375,4.453125 -3.953125,0 -7.890625,-0.875 -3.921875,-0.875 -8.015625,-2.734375 z" />
              </defs>
              <g
                 id="g4903"
                 transform="matrix(0.07,0,0,-0.07,298.09631,78.943281)"
                 style="fill:#808080;stroke-linecap:butt;stroke-linejoin:round">
                <use
                   height="100%"
                   width="100%"
                   y="0"
                   x="0"
                   style="stroke-linecap:butt;stroke-linejoin:round"
                   id="use4901"
                   xlink:href="#DejaVuSans-53" />
              </g>
            </g>
          </g>
          <g
             style="stroke-linecap:butt;stroke-linejoin:round"
             id="ytick_7">
            <g
               style="stroke-linecap:butt;stroke-linejoin:round"
               id="line2d_14">
              <path
                 inkscape:connector-curvature="0"
                 id="path4907"
                 style="fill:none;stroke:#b0b0b0;stroke-width:0.80000001;stroke-linecap:square;stroke-linejoin:round"
                 d="m 298.09631,69.527063 4.55036,0.158901 4.52818,0.475932 4.48396,0.790642 4.41788,1.101502 4.33028,1.406993 4.22159,1.705632 4.09232,1.99596 3.94313,2.276564 3.77471,2.546077 3.58791,2.803185 3.38364,3.046638 3.16287,3.275246 2.92669,3.487898 2.67626,3.683558 2.41279,3.861269 2.13757,4.02018 1.85192,4.15949 1.55726,4.27854 1.25501,4.37674 0.94665,4.45364 0.63367,4.50881 0.31761,4.54204 v 4.55313 l -0.31761,4.54203 -0.63367,4.50882 -0.94665,4.45363 -1.25501,4.37675 -1.55726,4.27854 -1.85192,4.15949 -2.13757,4.02017 -2.41279,3.86127 -2.67626,3.68356 -2.92669,3.4879 -3.16287,3.27525 -3.38364,3.04663 -3.58791,2.80319 -3.77471,2.54608 -3.94313,2.27656 -4.09232,1.99596 -4.22159,1.70563 -4.33028,1.40699 -4.41788,1.10151 -4.48396,0.79064 -4.52818,0.47593 -4.55036,0.1589 -4.55035,-0.1589 -4.52819,-0.47593 -4.48395,-0.79064 -4.41788,-1.10151 -4.33028,-1.40699 -4.22159,-1.70563 -4.09233,-1.99596 -3.94312,-2.27656 -3.77472,-2.54608 -3.58791,-2.80319 -3.38363,-3.04663 -3.16287,-3.27525 -2.9267,-3.4879 -2.67626,-3.68356 -2.41279,-3.86127 -2.13756,-4.02017 -1.85192,-4.15949 -1.55727,-4.27854 -1.25501,-4.37675 -0.94665,-4.45363 -0.63367,-4.50882 -0.31761,-4.54203 v -4.55313 l 0.31761,-4.54204 0.63367,-4.50881 0.94665,-4.45364 1.25501,-4.37674 1.55727,-4.27854 1.85192,-4.15949 2.13756,-4.02018 2.41279,-3.861269 2.67626,-3.683558 2.9267,-3.487898 3.16287,-3.275246 3.38363,-3.046638 3.58791,-2.803185 3.77472,-2.546077 3.94312,-2.276564 4.09233,-1.99596 4.22159,-1.705632 4.33028,-1.406993 4.41788,-1.101502 4.48395,-0.790642 4.52819,-0.475932 4.55035,-0.158901 v 0"
                 clip-path="url(#p20c4b48c1d)" />
            </g>
            <g
               style="stroke-linecap:butt;stroke-linejoin:round"
               id="text_14">
              <!-- 6 -->
              <defs
                 id="defs4911">
                <path
                   style="stroke-linecap:butt;stroke-linejoin:round"
                   inkscape:connector-curvature="0"
                   id="DejaVuSans-54"
                   d="m 33.015625,40.375 q -6.640625,0 -10.53125,-4.546875 -3.875,-4.53125 -3.875,-12.4375 0,-7.859375 3.875,-12.4375 3.890625,-4.5625 10.53125,-4.5625 6.640625,0 10.515625,4.5625 3.875,4.578125 3.875,12.4375 0,7.90625 -3.875,12.4375 Q 39.65625,40.375 33.015625,40.375 Z M 52.59375,71.296875 V 62.3125 q -3.71875,1.75 -7.5,2.671875 -3.78125,0.9375 -7.5,0.9375 -9.765625,0 -14.921875,-6.59375 -5.140625,-6.59375 -5.875,-19.921875 2.875,4.25 7.21875,6.515625 4.359375,2.265625 9.578125,2.265625 10.984375,0 17.359375,-6.671875 6.375,-6.65625 6.375,-18.125 0,-11.234375 -6.640625,-18.03125 -6.640625,-6.78125 -17.671875,-6.78125 -12.65625,0 -19.34375,9.6875 -6.6875,9.703125 -6.6875,28.109375 0,17.28125 8.203125,27.5625 8.203125,10.28125 22.015625,10.28125 3.71875,0 7.5,-0.734375 3.78125,-0.734375 7.890625,-2.1875 z" />
              </defs>
              <g
                 id="g4915"
                 transform="matrix(0.07,0,0,-0.07,298.09631,68.071281)"
                 style="fill:#808080;stroke-linecap:butt;stroke-linejoin:round">
                <use
                   height="100%"
                   width="100%"
                   y="0"
                   x="0"
                   style="stroke-linecap:butt;stroke-linejoin:round"
                   id="use4913"
                   xlink:href="#DejaVuSans-54" />
              </g>
            </g>
          </g>
          <g
             style="stroke-linecap:butt;stroke-linejoin:round"
             id="ytick_8">
            <g
               style="stroke-linecap:butt;stroke-linejoin:round"
               id="line2d_15">
              <path
                 inkscape:connector-curvature="0"
                 id="path4919"
                 style="fill:none;stroke:#b0b0b0;stroke-width:0.80000001;stroke-linecap:square;stroke-linejoin:round"
                 d="m 298.09631,58.655063 5.30875,0.185385 5.28288,0.555253 5.23128,0.922416 5.1542,1.285085 5.05199,1.641493 4.92519,1.989904 4.77438,2.32862 4.60031,2.655991 4.40383,2.970423 4.1859,3.270383 3.94757,3.55441 3.69002,3.821121 3.41447,4.069215 3.12231,4.297484 2.81492,4.504817 2.49382,4.690207 2.16058,4.85273 1.81681,4.99163 1.46418,5.10621 1.10442,5.1959 0.73929,5.26029 0.37054,5.29904 v 5.31198 l -0.37054,5.29905 -0.73929,5.26028 -1.10442,5.19591 -1.46418,5.1062 -1.81681,4.99163 -2.16058,4.85274 -2.49382,4.6902 -2.81492,4.50482 -3.12231,4.29748 -3.41447,4.06922 -3.69002,3.82112 -3.94757,3.55441 -4.1859,3.27038 -4.40383,2.97042 -4.60031,2.656 -4.77438,2.32862 -4.92519,1.9899 -5.05199,1.64149 -5.1542,1.28509 -5.23128,0.92241 -5.28288,0.55526 -5.30875,0.18538 -5.30874,-0.18538 -5.28289,-0.55526 -5.23128,-0.92241 -5.15419,-1.28509 -5.052,-1.64149 -4.92518,-1.9899 -4.77438,-2.32862 -4.60031,-2.656 -4.40384,-2.97042 -4.1859,-3.27038 -3.94757,-3.55441 -3.69001,-3.82112 -3.41448,-4.06922 -3.1223,-4.29748 -2.81493,-4.50482 -2.49382,-4.6902 -2.16058,-4.85274 -1.8168,-4.99163 -1.46418,-5.1062 -1.10443,-5.19591 -0.73928,-5.26028 -0.37055,-5.29905 v -5.31198 l 0.37055,-5.29904 0.73928,-5.26029 1.10443,-5.1959 1.46418,-5.10621 1.8168,-4.99163 2.16058,-4.85273 2.49382,-4.690207 2.81493,-4.504817 3.1223,-4.297484 3.41448,-4.069215 3.69001,-3.821121 3.94757,-3.55441 4.1859,-3.270383 4.40384,-2.970423 4.60031,-2.655991 4.77438,-2.32862 4.92518,-1.989904 5.052,-1.641493 5.15419,-1.285085 5.23128,-0.922416 5.28289,-0.555253 5.30874,-0.185385 v 0"
                 clip-path="url(#p20c4b48c1d)" />
            </g>
            <g
               style="stroke-linecap:butt;stroke-linejoin:round"
               id="text_15">
              <!-- 7 -->
              <defs
                 id="defs4923">
                <path
                   style="stroke-linecap:butt;stroke-linejoin:round"
                   inkscape:connector-curvature="0"
                   id="DejaVuSans-55"
                   d="m 8.203125,72.90625 h 46.875 V 68.703125 L 28.609375,0 H 18.3125 L 43.21875,64.59375 H 8.203125 Z" />
              </defs>
              <g
                 id="g4927"
                 transform="matrix(0.07,0,0,-0.07,298.09631,57.199281)"
                 style="fill:#808080;stroke-linecap:butt;stroke-linejoin:round">
                <use
                   height="100%"
                   width="100%"
                   y="0"
                   x="0"
                   style="stroke-linecap:butt;stroke-linejoin:round"
                   id="use4925"
                   xlink:href="#DejaVuSans-55" />
              </g>
            </g>
          </g>
          <path
             inkscape:connector-curvature="0"
             id="path4931"
             style="fill:none;stroke:#b0b0b0;stroke-width:0.80000001;stroke-linecap:square;stroke-linejoin:round"
             d="m 298.09631,47.783063 6.06714,0.211869 6.03758,0.634575 5.97861,1.05419 5.89051,1.468668 5.77371,1.875992 5.62878,2.274176 5.45643,2.66128 5.2575,3.035418 5.03295,3.394769 4.78389,3.737581 4.51151,4.062183 4.21716,4.366995 3.90226,4.650531 3.56834,4.911411 3.21706,5.148362 2.85008,5.360231 2.46923,5.545986 2.07635,5.70472 1.67335,5.83566 1.2622,5.93818 0.8449,6.01176 0.42348,6.05604 v 6.07084 l -0.42348,6.05605 -0.8449,6.01176 -1.2622,5.93817 -1.67335,5.83566 -2.07635,5.70473 -2.46923,5.54598 -2.85008,5.36023 -3.21706,5.14836 -3.56834,4.91141 -3.90226,4.65054 -4.21716,4.36699 -4.51151,4.06218 -4.78389,3.73758 -5.03295,3.39477 -5.2575,3.03542 -5.45643,2.66128 -5.62878,2.27418 -5.77371,1.87599 -5.89051,1.46867 -5.97861,1.05419 -6.03758,0.63457 -6.06714,0.21187 -6.06714,-0.21187 -6.03758,-0.63457 -5.9786,-1.05419 -5.89051,-1.46867 -5.77371,-1.87599 -5.62878,-2.27418 -5.45644,-2.66128 -5.2575,-3.03542 -5.03295,-3.39477 -4.78388,-3.73758 -4.51151,-4.06218 -4.21716,-4.36699 -3.90226,-4.65054 -3.56835,-4.91141 -3.21705,-5.14836 -2.85009,-5.36023 -2.46923,-5.54598 -2.07635,-5.70473 -1.67335,-5.83566 -1.2622,-5.93817 -0.84489,-6.01176 -0.42348,-6.05605 v -6.07084 l 0.42348,-6.05604 0.84489,-6.01176 1.2622,-5.93818 1.67335,-5.83566 2.07635,-5.70472 2.46923,-5.545986 2.85009,-5.360231 3.21705,-5.148362 3.56835,-4.911411 3.90226,-4.650531 4.21716,-4.366995 4.51151,-4.062183 4.78388,-3.737581 5.03295,-3.394769 5.2575,-3.035418 5.45644,-2.66128 5.62878,-2.274176 5.77371,-1.875992 5.89051,-1.468668 5.9786,-1.05419 6.03758,-0.634575 6.06714,-0.211869 v 0"
             clip-path="url(#p20c4b48c1d)" />
          <g
             id="text_16"
             style="stroke-linecap:butt;stroke-linejoin:round">
            <!-- 8 -->
            <defs
               id="defs4935">
              <path
                 d="m 31.78125,34.625 q -7.03125,0 -11.0625,-3.765625 -4.015625,-3.765625 -4.015625,-10.34375 0,-6.59375 4.015625,-10.359375 4.03125,-3.765625 11.0625,-3.765625 7.03125,0 11.078125,3.78125 4.0625,3.796875 4.0625,10.34375 0,6.578125 -4.03125,10.34375 Q 38.875,34.625 31.78125,34.625 Z m -9.859375,4.1875 Q 15.578125,40.375 12.03125,44.71875 8.5,49.078125 8.5,55.328125 q 0,8.734375 6.21875,13.8125 6.234375,5.078125 17.0625,5.078125 10.890625,0 17.09375,-5.078125 6.203125,-5.078125 6.203125,-13.8125 0,-6.25 -3.546875,-10.609375 Q 48,40.375 41.703125,38.8125 q 7.125,-1.65625 11.09375,-6.5 3.984375,-4.828125 3.984375,-11.796875 0,-10.609375 -6.46875,-16.28125 -6.46875,-5.65625 -18.53125,-5.65625 -12.046875,0 -18.53125,5.65625 -6.46875,5.671875 -6.46875,16.28125 0,6.96875 4,11.796875 4.015625,4.84375 11.140625,6.5 z M 18.3125,54.390625 q 0,-5.65625 3.53125,-8.828125 3.546875,-3.171875 9.9375,-3.171875 6.359375,0 9.9375,3.171875 3.59375,3.171875 3.59375,8.828125 0,5.671875 -3.59375,8.84375 -3.578125,3.171875 -9.9375,3.171875 -6.390625,0 -9.9375,-3.171875 Q 18.3125,60.0625 18.3125,54.390625 Z"
                 id="DejaVuSans-56"
                 inkscape:connector-curvature="0"
                 style="stroke-linecap:butt;stroke-linejoin:round" />
            </defs>
            <g
               style="fill:#808080;stroke-linecap:butt;stroke-linejoin:round"
               transform="matrix(0.07,0,0,-0.07,298.09631,46.327281)"
               id="g4939">
              <use
                 xlink:href="#DejaVuSans-56"
                 id="use4937"
                 style="stroke-linecap:butt;stroke-linejoin:round"
                 x="0"
                 y="0"
                 width="100%"
                 height="100%" />
            </g>
          </g>
          <path
             inkscape:connector-curvature="0"
             id="path4943"
             style="fill:none;stroke:#b0b0b0;stroke-width:0.80000001;stroke-linecap:square;stroke-linejoin:round"
             d="m 298.09631,36.911063 3.41485,0.05961 3.41068,0.178746 3.40237,0.297669 3.38991,0.416229 3.37332,0.53428 3.35262,0.651683 3.32783,0.76829 3.29899,0.883962 3.26613,0.998556 3.22929,1.111935 3.18852,1.223958 3.14386,1.33449 3.09537,1.443396 3.04312,1.550543 2.98714,1.655803 2.92754,1.759043 2.86437,1.860142 2.7977,1.958974 2.72764,2.055418 2.65424,2.14936 2.5776,2.240682 2.49785,2.329274 2.41502,2.415028 2.32928,2.497841 2.24068,2.577609 2.14936,2.654238 2.05542,2.727633 1.95897,2.797704 1.86014,2.864367 1.75905,2.927541 1.6558,2.987146 1.55054,3.043114 1.4434,3.095372 1.33449,3.143862 1.22396,3.188519 1.11193,3.22929 0.99856,3.26613 0.88396,3.29899 0.76829,3.32783 0.65168,3.35262 0.53428,3.37331 0.41623,3.38991 0.29767,3.40237 0.17875,3.41069 0.0596,3.41484 -0.0596,3.41485 -0.17875,3.41068 -0.29767,3.40237 -0.41623,3.38991 -0.53428,3.37332 -0.65168,3.35262 -0.76829,3.32783 -0.88396,3.29899 -0.99856,3.26613 -1.11193,3.22929 -1.22396,3.18852 -1.33449,3.14386 -1.4434,3.09537 -1.55054,3.04312 -1.6558,2.98714 -1.75905,2.92754 -1.86014,2.86437 -1.95897,2.7977 -2.05542,2.72764 -2.14936,2.65424 -2.24068,2.5776 -2.32928,2.49784 -2.41502,2.41503 -2.49785,2.32928 -2.5776,2.24068 -2.65424,2.14936 -2.72764,2.05542 -2.7977,1.95897 -2.86437,1.86014 -2.92754,1.75905 -2.98714,1.6558 -3.04312,1.55054 -3.09537,1.4434 -3.14386,1.33449 -3.18852,1.22396 -3.22929,1.11193 -3.26613,0.99856 -3.29899,0.88396 -3.32783,0.76829 -3.35262,0.65168 -3.37332,0.53428 -3.38991,0.41623 -3.40237,0.29767 -3.41068,0.17875 -3.41485,0.0596 -3.41484,-0.0596 -3.41069,-0.17875 -3.40237,-0.29767 -3.38991,-0.41623 -3.37331,-0.53428 -3.35262,-0.65168 -3.32783,-0.76829 -3.29899,-0.88396 -3.26613,-0.99856 -3.22929,-1.11193 -3.18852,-1.22396 -3.14386,-1.33449 -3.09538,-1.4434 -3.04311,-1.55054 -2.98715,-1.6558 -2.92754,-1.75905 -2.86437,-1.86014 -2.7977,-1.95897 -2.72763,-2.05542 -2.65424,-2.14936 -2.57761,-2.24068 -2.49784,-2.32928 -2.41503,-2.41503 -2.32927,-2.49784 -2.24068,-2.5776 -2.14936,-2.65424 -2.05542,-2.72764 -1.95898,-2.7977 -1.86014,-2.86437 -1.75904,-2.92754 -1.6558,-2.98714 -1.55055,-3.04312 -1.44339,-3.09537 -1.33449,-3.14386 -1.22396,-3.18852 -1.11194,-3.22929 -0.99855,-3.26613 -0.88396,-3.29899 -0.76829,-3.32783 -0.65169,-3.35262 -0.53428,-3.37332 -0.41623,-3.38991 -0.29767,-3.40237 -0.17874,-3.41068 -0.0596,-3.41485 0.0596,-3.41484 0.17874,-3.41069 0.29767,-3.40237 0.41623,-3.38991 0.53428,-3.37331 0.65169,-3.35262 0.76829,-3.32783 0.88396,-3.29899 0.99855,-3.26613 1.11194,-3.22929 1.22396,-3.188519 1.33449,-3.143862 1.44339,-3.095372 1.55055,-3.043114 1.6558,-2.987146 1.75904,-2.927541 1.86014,-2.864367 1.95898,-2.797704 2.05542,-2.727633 2.14936,-2.654238 2.24068,-2.577609 2.32927,-2.497841 2.41503,-2.415028 2.49784,-2.329274 2.57761,-2.240682 2.65424,-2.14936 2.72763,-2.055418 2.7977,-1.958974 2.86437,-1.860142 2.92754,-1.759043 2.98715,-1.655803 3.04311,-1.550543 3.09538,-1.443396 3.14386,-1.33449 3.18852,-1.223958 3.22929,-1.111935 3.26613,-0.998556 3.29899,-0.883962 3.32783,-0.76829 3.35262,-0.651683 3.37331,-0.53428 3.38991,-0.416229 3.40237,-0.297669 3.41069,-0.178746 3.41484,-0.05961 v 0"
             clip-path="url(#p20c4b48c1d)" />
          <g
             id="text_17"
             style="stroke-linecap:butt;stroke-linejoin:round">
            <!-- 9 -->
            <defs
               id="defs4947">
              <path
                 d="M 10.984375,1.515625 V 10.5 Q 14.703125,8.734375 18.5,7.8125 q 3.8125,-0.921875 7.484375,-0.921875 9.765625,0 14.90625,6.5625 5.15625,6.5625 5.890625,19.953125 -2.828125,-4.203125 -7.1875,-6.453125 -4.34375,-2.25 -9.609375,-2.25 -10.9375,0 -17.3125,6.609375 -6.375,6.625 -6.375,18.109375 0,11.21875 6.640625,18 6.640625,6.796875 17.671875,6.796875 12.65625,0 19.3125,-9.703125 6.671875,-9.6875 6.671875,-28.140625 0,-17.234375 -8.1875,-27.515625 -8.171875,-10.28125 -21.984375,-10.28125 -3.71875,0 -7.53125,0.734375 -3.796875,0.734375 -7.90625,2.203125 z m 19.625,30.90625 q 6.640625,0 10.515625,4.53125 3.890625,4.546875 3.890625,12.46875 0,7.859375 -3.890625,12.421875 -3.875,4.5625 -10.515625,4.5625 -6.640625,0 -10.515625,-4.5625 -3.875,-4.5625 -3.875,-12.421875 0,-7.921875 3.875,-12.46875 3.875,-4.53125 10.515625,-4.53125 z"
                 id="DejaVuSans-57"
                 inkscape:connector-curvature="0"
                 style="stroke-linecap:butt;stroke-linejoin:round" />
            </defs>
            <g
               style="fill:#808080;stroke-linecap:butt;stroke-linejoin:round"
               transform="matrix(0.07,0,0,-0.07,298.09631,35.455281)"
               id="g4951">
              <use
                 xlink:href="#DejaVuSans-57"
                 id="use4949"
                 style="stroke-linecap:butt;stroke-linejoin:round"
                 x="0"
                 y="0"
                 width="100%"
                 height="100%" />
            </g>
          </g>
          <g
             style="stroke-linecap:butt;stroke-linejoin:round"
             id="ytick_11">
            <g
               style="stroke-linecap:butt;stroke-linejoin:round"
               id="text_18">
              <!-- 10 -->
              <g
                 id="g4962"
                 transform="matrix(0.07,0,0,-0.07,298.09631,24.583281)"
                 style="fill:#808080;stroke-linecap:butt;stroke-linejoin:round">
                <use
                   height="100%"
                   width="100%"
                   y="0"
                   x="0"
                   style="stroke-linecap:butt;stroke-linejoin:round"
                   id="use4958"
                   xlink:href="#DejaVuSans-49" />
                <path
                   style="stroke-linecap:butt;stroke-linejoin:round"
                   inkscape:connector-curvature="0"
                   id="use4960"
                   d="m 95.404297,66.40625 q -7.609375,0 -11.453125,-7.5 -3.828125,-7.484375 -3.828125,-22.53125 0,-14.984375 3.828125,-22.484375 3.84375,-7.5 11.453125,-7.5 7.671873,0 11.500003,7.5 3.84375,7.5 3.84375,22.484375 0,15.046875 -3.84375,22.53125 -3.82813,7.5 -11.500003,7.5 z m 0,7.8125 q 12.265623,0 18.734373,-9.703125 6.46875,-9.6875 6.46875,-28.140625 0,-18.40625 -6.46875,-28.109375 -6.46875,-9.6875 -18.734373,-9.6875 -12.25,0 -18.71875,9.6875 -6.46875,9.703125 -6.46875,28.109375 0,18.453125 6.46875,28.140625 6.46875,9.703125 18.71875,9.703125 z" />
              </g>
            </g>
          </g>
          <path
             inkscape:connector-curvature="0"
             id="path4976"
             style="fill:none;stroke:#000000;stroke-width:0.80024999;stroke-linecap:square;stroke-linejoin:miter;stroke-miterlimit:4;stroke-dasharray:none"
             d="m 298.09631,26.039063 c -14.27698,0 -28.41513,2.812253 -41.60534,8.275817 -13.19021,5.463563 -25.17596,13.472184 -35.27131,23.567533 -10.09535,10.095349 -18.10397,22.081098 -23.56753,35.271307 -5.46356,13.19021 -8.27582,27.32836 -8.27582,41.60534 0,14.27698 2.81226,28.41514 8.27582,41.60534 5.46356,13.19021 13.47218,25.17596 23.56753,35.27131 10.09535,10.09535 22.0811,18.10397 35.27131,23.56753 13.19021,5.46357 27.32836,8.27582 41.60534,8.27582 14.27698,0 28.41514,-2.81225 41.60535,-8.27582 13.1902,-5.46356 25.17595,-13.47218 35.2713,-23.56753 10.09535,-10.09535 18.10397,-22.0811 23.56754,-35.27131 5.46356,-13.1902 8.27581,-27.32836 8.27581,-41.60534 0,-14.27698 -2.81225,-28.41513 -8.27581,-41.60534 C 393.07693,79.963511 385.06831,67.977762 374.97296,57.882413 364.87761,47.787064 352.89186,39.778443 339.70166,34.31488 326.51145,28.851316 312.37329,26.039063 298.09631,26.039063" />
        </g>
        <g
           style="stroke-linecap:butt;stroke-linejoin:round"
           id="matplotlib.axis_1">
          <g
             style="stroke-linecap:butt;stroke-linejoin:round"
             id="xtick_1">
            <g
               style="stroke-linecap:butt;stroke-linejoin:round"
               id="line2d_1">
              <path
                 inkscape:connector-curvature="0"
                 id="path4498"
                 style="fill:none;stroke:#b0b0b0;stroke-width:0.80000001;stroke-linecap:square;stroke-linejoin:round"
                 d="M 298.09631,134.75906 V 26.039063"
                 clip-path="url(#p20c4b48c1d)" />
            </g>
          </g>
          <g
             style="stroke-linecap:butt;stroke-linejoin:round"
             id="xtick_2">
            <g
               style="stroke-linecap:butt;stroke-linejoin:round"
               id="line2d_2">
              <path
                 inkscape:connector-curvature="0"
                 id="path4552"
                 style="fill:none;stroke:#b0b0b0;stroke-width:0.80000001;stroke-linecap:square;stroke-linejoin:round"
                 d="M 298.09631,134.75906 383.09703,66.973251"
                 clip-path="url(#p20c4b48c1d)" />
            </g>
          </g>
          <g
             style="stroke-linecap:butt;stroke-linejoin:round"
             id="xtick_3">
            <g
               style="stroke-linecap:butt;stroke-linejoin:round"
               id="line2d_3">
              <path
                 inkscape:connector-curvature="0"
                 id="path4585"
                 style="fill:none;stroke:#b0b0b0;stroke-width:0.80000001;stroke-linecap:square;stroke-linejoin:round"
                 d="m 298.09631,134.75906 105.99417,24.19248"
                 clip-path="url(#p20c4b48c1d)" />
            </g>
          </g>
          <g
             style="stroke-linecap:butt;stroke-linejoin:round"
             id="xtick_4">
            <g
               style="stroke-linecap:butt;stroke-linejoin:round"
               id="line2d_4">
              <path
                 inkscape:connector-curvature="0"
                 id="path4624"
                 style="fill:none;stroke:#b0b0b0;stroke-width:0.80000001;stroke-linecap:square;stroke-linejoin:round"
                 d="m 298.09631,134.75906 47.17184,97.95334"
                 clip-path="url(#p20c4b48c1d)" />
            </g>
          </g>
          <g
             style="stroke-linecap:butt;stroke-linejoin:round"
             id="xtick_5">
            <g
               style="stroke-linecap:butt;stroke-linejoin:round"
               id="line2d_5">
              <path
                 inkscape:connector-curvature="0"
                 id="path4676"
                 style="fill:none;stroke:#b0b0b0;stroke-width:0.80000001;stroke-linecap:square;stroke-linejoin:round"
                 d="M 298.09631,134.75906 250.92447,232.7124"
                 clip-path="url(#p20c4b48c1d)" />
            </g>
          </g>
          <g
             style="stroke-linecap:butt;stroke-linejoin:round"
             id="xtick_6">
            <g
               style="stroke-linecap:butt;stroke-linejoin:round"
               id="line2d_6">
              <path
                 inkscape:connector-curvature="0"
                 id="path4725"
                 style="fill:none;stroke:#b0b0b0;stroke-width:0.80000001;stroke-linecap:square;stroke-linejoin:round"
                 d="M 298.09631,134.75906 192.10215,158.95154"
                 clip-path="url(#p20c4b48c1d)" />
            </g>
          </g>
          <g
             style="stroke-linecap:butt;stroke-linejoin:round"
             id="xtick_7">
            <g
               style="stroke-linecap:butt;stroke-linejoin:round"
               id="line2d_7">
              <path
                 inkscape:connector-curvature="0"
                 id="path4763"
                 style="fill:none;stroke:#b0b0b0;stroke-width:0.80000001;stroke-linecap:square;stroke-linejoin:round"
                 d="M 298.09631,134.75906 213.09559,66.973251"
                 clip-path="url(#p20c4b48c1d)" />
            </g>
          </g>
        </g>
      </g>
      <text
         xml:space="preserve"
         style="font-size:10px;font-family:'Helvetica Neue', FreeSans, sans-serif;stroke-linecap:butt;stroke-linejoin:round"
         x="141.99152"
         y="58.253052"
         id="text6079"><tspan
           sodipodi:role="line"
           x="141.99152"
           y="58.253052"
           id="tspan6089"
           style="stroke-linecap:butt;stroke-linejoin:round">Communication</tspan><tspan
           sodipodi:role="line"
           x="141.99152"
           y="70.753052"
           id="tspan6095"
           style="stroke-linecap:butt;stroke-linejoin:round">&amp; Visualization</tspan></text>
      <text
         id="text6288"
         y="13.898538"
         x="258.58051"
         style="font-size:10px;font-family:'Helvetica Neue', FreeSans, sans-serif;stroke-linecap:butt;stroke-linejoin:round"
         xml:space="preserve"><tspan
           id="tspan6286"
           y="13.898538"
           x="258.58051"
           sodipodi:role="line"
           style="stroke-linecap:butt;stroke-linejoin:round">Domain Knowledge</tspan></text>
      <text
         xml:space="preserve"
         style="font-size:10px;font-family:'Helvetica Neue', FreeSans, sans-serif;stroke-linecap:butt;stroke-linejoin:round"
         x="386.57495"
         y="64.589409"
         id="text6294"><tspan
           sodipodi:role="line"
           x="386.57495"
           y="64.589409"
           id="tspan6292"
           style="stroke-linecap:butt;stroke-linejoin:round">Statistics</tspan></text>
      <text
         id="text6352"
         y="164.70389"
         x="408.11856"
         style="font-size:10px;font-family:'Helvetica Neue', FreeSans, sans-serif;stroke-linecap:butt;stroke-linejoin:round"
         xml:space="preserve"><tspan
           id="tspan6350"
           y="164.70389"
           x="408.11856"
           sodipodi:role="line"
           style="stroke-linecap:butt;stroke-linejoin:round">Advanced</tspan><tspan
           y="177.20389"
           x="408.11856"
           sodipodi:role="line"
           id="tspan6354"
           style="stroke-linecap:butt;stroke-linejoin:round">Math</tspan></text>
      <text
         xml:space="preserve"
         style="font-size:10px;font-family:'Helvetica Neue', FreeSans, sans-serif;stroke-linecap:butt;stroke-linejoin:round"
         x="344.75494"
         y="242.44292"
         id="text6370"><tspan
           id="tspan6368"
           sodipodi:role="line"
           x="344.75494"
           y="242.44292"
           style="stroke-linecap:butt;stroke-linejoin:round">Software</tspan><tspan
           sodipodi:role="line"
           x="344.75494"
           y="254.94292"
           id="tspan6374"
           style="stroke-linecap:butt;stroke-linejoin:round">Engineering</tspan></text>
      <text
         id="text6402"
         y="238.83928"
         x="222.46321"
         style="font-size:10px;font-family:'Helvetica Neue', FreeSans, sans-serif;stroke-linecap:butt;stroke-linejoin:round"
         xml:space="preserve"><tspan
           id="tspan6400"
           y="238.83928"
           x="222.46321"
           sodipodi:role="line"
           style="stroke-linecap:butt;stroke-linejoin:round">Data</tspan><tspan
           y="251.33928"
           x="222.46321"
           sodipodi:role="line"
           id="tspan6406"
           style="stroke-linecap:butt;stroke-linejoin:round">Infrastructure</tspan></text>
      <text
         xml:space="preserve"
         style="font-size:10px;font-family:'Helvetica Neue', FreeSans, sans-serif;stroke-linecap:butt;stroke-linejoin:round"
         x="188.52693"
         y="158.1425"
         id="text6418"><tspan
           sodipodi:role="line"
           x="188.52693"
           y="158.1425"
           id="tspan6414"
           style="text-align:end;text-anchor:end;stroke-linecap:butt;stroke-linejoin:round">Data</tspan><tspan
           id="tspan6416"
           sodipodi:role="line"
           x="188.52693"
           y="170.6425"
           style="text-align:end;text-anchor:end;stroke-linecap:butt;stroke-linejoin:round">Wrangling</tspan></text>
    </g>
    <g
       id="g8087"
       style="stroke-linecap:butt;stroke-linejoin:round">
      <g
         id="patch_4"
         style="stroke-linecap:butt;stroke-linejoin:round">
        <path
           clip-path="url(#p20c4b48c1d)"
           d="m 298.09631,58.655063 25.50022,55.768257 -4.30139,25.17424 21.25583,83.3195 -89.6265,9.79534 -58.82232,-73.76086 80.49395,-44.52822 z"
           style="opacity:1;fill:#ff7f0e;fill-opacity:0.09803922;stroke:#ff7f0e;stroke-linecap:butt;stroke-linejoin:round;stroke-opacity:1"
           id="path4492"
           inkscape:connector-curvature="0" />
      </g>
      <g
         id="patch_3"
         style="stroke-linecap:butt;stroke-linejoin:round">
        <path
           clip-path="url(#p20c4b48c1d)"
           d="m 298.09631,26.039063 42.50036,74.827097 -10.70211,41.15064 -17.6467,22.12826 -23.58592,-9.79533 -75.36096,-0.23669 -0.20539,-87.139789 z"
           style="opacity:1;fill:#1f77b4;fill-opacity:0.09803922;stroke:#1f77b4;stroke-linecap:butt;stroke-linejoin:round;stroke-opacity:1"
           id="path4489"
           inkscape:connector-curvature="0" />
      </g>
      <g
         id="patch_5"
         style="stroke-linecap:butt;stroke-linejoin:round">
        <path
           clip-path="url(#p20c4b48c1d)"
           d="m 298.09631,58.655063 85.00072,8.318188 20.99345,91.978289 -72.97388,44.37486 -51.88902,-29.386 -65.9266,-19.82736 25.29483,-66.804045 z"
           style="opacity:1;fill:#2ca02c;fill-opacity:0.09803922;stroke:#2ca02c;stroke-linecap:butt;stroke-linejoin:round;stroke-opacity:1"
           id="path4495"
           inkscape:connector-curvature="0" />
      </g>
    </g>
  </g>
  <g
     id="g8391"
     transform="translate(357.68728,30.897051)"
     style="stroke-linecap:butt;stroke-linejoin:round">
    <rect
       ry="2.6921189"
       y="57.443779"
       x="5.1409974"
       height="117.62112"
       width="91.509758"
       id="rect8079"
       style="opacity:1;fill:#fafafa;fill-opacity:1;stroke:#777777;stroke-width:0.80024999;stroke-linecap:butt;stroke-linejoin:round;stroke-miterlimit:4;stroke-dasharray:none;stroke-dashoffset:0;stroke-opacity:1" />
    <g
       style="stroke-linecap:butt;stroke-linejoin:round"
       transform="translate(1.27587,11.825543)"
       id="g8361">
      <g
         style="stroke-linecap:butt;stroke-linejoin:round"
         id="g374">
        <rect
           y="55.23912"
           x="11.567247"
           height="9"
           width="9"
           id="rect7784"
           style="opacity:1;fill:#1f77b4;fill-opacity:0.09803922;stroke:#1f77b4;stroke-width:0.80024999;stroke-linecap:butt;stroke-linejoin:round;stroke-miterlimit:4;stroke-dasharray:none;stroke-opacity:1" />
        <text
           xml:space="preserve"
           style="font-size:10px;font-family:'Helvetica Neue', FreeSans, sans-serif;stroke-linecap:butt;stroke-linejoin:round"
           x="26.35914"
           y="62.128994"
           id="text354"><tspan
             style="stroke-linecap:butt;stroke-linejoin:round"
             id="tspan350"
             sodipodi:role="line"
             x="26.35914"
             y="62.128994">Data Analyst</tspan><tspan
             id="tspan352"
             sodipodi:role="line"
             x="26.35914"
             y="74.628998"
             style="font-size:8px;stroke-linecap:butt;stroke-linejoin:round">μ=5.86, σ=3.44</tspan></text>
      </g>
      <g
         style="stroke-linecap:butt;stroke-linejoin:round"
         id="g380">
        <rect
           style="opacity:1;fill:#ff7a0a;fill-opacity:0.09803922;stroke:#ff7f0e;stroke-width:0.80024999;stroke-linecap:butt;stroke-linejoin:round;stroke-miterlimit:4;stroke-dasharray:none;stroke-opacity:0.96862745"
           id="rect7786"
           width="9"
           height="9"
           x="11.567247"
           y="94.073921" />
        <text
           id="text7846"
           y="100.9638"
           x="26.35914"
           style="font-size:10px;font-family:'Helvetica Neue', FreeSans, sans-serif;stroke-linecap:butt;stroke-linejoin:round"
           xml:space="preserve"><tspan
             y="100.9638"
             x="26.35914"
             sodipodi:role="line"
             id="tspan7828"
             style="stroke-linecap:butt;stroke-linejoin:round">Data Engineer</tspan><tspan
             style="font-size:8px;stroke-linecap:butt;stroke-linejoin:round"
             y="113.4638"
             x="26.35914"
             sodipodi:role="line"
             id="tspan7844">μ=6.29, σ=3.55</tspan></text>
      </g>
      <g
         style="stroke-linecap:butt;stroke-linejoin:round"
         id="g8021">
        <rect
           y="132.90872"
           x="11.567247"
           height="9"
           width="9"
           id="rect7788"
           style="opacity:1;fill:#299929;fill-opacity:0.09803922;stroke:#2ca02c;stroke-width:0.80024999;stroke-linecap:butt;stroke-linejoin:round;stroke-miterlimit:4;stroke-dasharray:none;stroke-opacity:0.93333333" />
        <text
           id="text7901"
           y="139.91859"
           x="26.35914"
           style="font-size:10px;font-family:'Helvetica Neue', FreeSans, sans-serif;stroke-linecap:butt;stroke-linejoin:round"
           xml:space="preserve"><tspan
             y="139.91859"
             x="26.35914"
             sodipodi:role="line"
             id="tspan7891"
             style="stroke-linecap:butt;stroke-linejoin:round">Data Scientist</tspan><tspan
             y="152.41859"
             x="26.35914"
             sodipodi:role="line"
             id="tspan7895"
             style="font-size:8px;stroke-linecap:butt;stroke-linejoin:round">μ=7.57, σ=2.07</tspan></text>
      </g>
    </g>
  </g>
  <g
     style="stroke-linecap:butt;stroke-linejoin:round"
     transform="translate(22.268374,237.18647)"
     id="g207">
    <rect
       style="opacity:1;fill:#fafafa;fill-opacity:1;stroke:#777777;stroke-width:0.80024999;stroke-linecap:butt;stroke-linejoin:round;stroke-miterlimit:4;stroke-dasharray:none;stroke-dashoffset:0;stroke-opacity:1"
       id="rect173"
       width="299.13007"
       height="39.098049"
       x="5.1409974"
       y="57.443779"
       ry="2.6921189" />
    <g
       id="g205"
       transform="translate(1.27587,11.825543)"
       style="stroke-linecap:butt;stroke-linejoin:round">
      <g
         id="g183"
         style="stroke-linecap:butt;stroke-linejoin:round">
        <rect
           style="opacity:1;fill:#1f77b4;fill-opacity:0.09803922;stroke:#1f77b4;stroke-width:0.80024999;stroke-linecap:butt;stroke-linejoin:round;stroke-miterlimit:4;stroke-dasharray:none;stroke-opacity:1"
           id="rect175"
           width="9"
           height="9"
           x="11.567247"
           y="55.23912" />
        <text
           id="text181"
           y="62.128994"
           x="26.35914"
           style="font-size:10px;font-family:'Helvetica Neue', FreeSans, sans-serif;stroke-linecap:butt;stroke-linejoin:round"
           xml:space="preserve"><tspan
             y="62.128994"
             x="26.35914"
             sodipodi:role="line"
             id="tspan177"
             style="stroke-linecap:butt;stroke-linejoin:round">Data Analyst</tspan><tspan
             style="font-size:8px;stroke-linecap:butt;stroke-linejoin:round"
             y="74.628998"
             x="26.35914"
             sodipodi:role="line"
             id="tspan179">μ=5.86, σ=3.44</tspan></text>
      </g>
      <g
         transform="translate(104.47559,-38.834802)"
         id="g193"
         style="stroke-linecap:butt;stroke-linejoin:round">
        <rect
           y="94.073921"
           x="11.567247"
           height="9"
           width="9"
           id="rect185"
           style="opacity:1;fill:#ff7a0a;fill-opacity:0.09803922;stroke:#ff7f0e;stroke-width:0.80024999;stroke-linecap:butt;stroke-linejoin:round;stroke-miterlimit:4;stroke-dasharray:none;stroke-opacity:0.96862745" />
        <text
           xml:space="preserve"
           style="font-size:10px;font-family:'Helvetica Neue', FreeSans, sans-serif;stroke-linecap:butt;stroke-linejoin:round"
           x="26.35914"
           y="100.9638"
           id="text191"><tspan
             style="stroke-linecap:butt;stroke-linejoin:round"
             id="tspan187"
             sodipodi:role="line"
             x="26.35914"
             y="100.9638">Data Engineer</tspan><tspan
             id="tspan189"
             sodipodi:role="line"
             x="26.35914"
             y="113.4638"
             style="font-size:8px;stroke-linecap:butt;stroke-linejoin:round">μ=6.29, σ=3.55</tspan></text>
      </g>
      <g
         transform="translate(208.95121,-77.6696)"
         id="g203"
         style="stroke-linecap:butt;stroke-linejoin:round">
        <rect
           style="opacity:1;fill:#299929;fill-opacity:0.09803922;stroke:#2ca02c;stroke-width:0.80024999;stroke-linecap:butt;stroke-linejoin:round;stroke-miterlimit:4;stroke-dasharray:none;stroke-opacity:0.93333333"
           id="rect195"
           width="9"
           height="9"
           x="11.567247"
           y="132.90872" />
        <text
           xml:space="preserve"
           style="font-size:10px;font-family:'Helvetica Neue', FreeSans, sans-serif;stroke-linecap:butt;stroke-linejoin:round"
           x="26.35914"
           y="139.91859"
           id="text201"><tspan
             style="stroke-linecap:butt;stroke-linejoin:round"
             id="tspan197"
             sodipodi:role="line"
             x="26.35914"
             y="139.91859">Data Scientist</tspan><tspan
             style="font-size:8px;stroke-linecap:butt;stroke-linejoin:round"
             id="tspan199"
             sodipodi:role="line"
             x="26.35914"
             y="152.41859">μ=7.57, σ=2.07</tspan></text>
      </g>
    </g>
  </g>
</svg>
